<svg width="196" height="70" fill="none" xmlns="http://www.w3.org/2000/svg"><rect width="195.183" height="70" rx="10" fill="#000" fill-opacity=".7"/><path d="M59.411 25.622v-9.16h3.295c2.723 0 4.322 1.67 4.322 4.552v.012c0 2.901-1.593 4.596-4.322 4.596H59.41Zm1.466-1.257h1.67c1.91 0 2.99-1.193 2.99-3.326v-.013c0-2.107-1.092-3.307-2.99-3.307h-1.67v6.646ZM71.81 25.755c-1.986 0-3.236-1.339-3.236-3.529v-.013c0-2.177 1.263-3.516 3.23-3.516 1.968 0 3.238 1.333 3.238 3.516v.013c0 2.19-1.257 3.53-3.231 3.53Zm0-1.174c1.112 0 1.785-.87 1.785-2.355v-.013c0-1.479-.68-2.342-1.79-2.342-1.105 0-1.784.863-1.784 2.342v.013c0 1.492.673 2.355 1.79 2.355ZM77.94 25.622l-1.86-6.792h1.415l1.212 5.269h.07l1.384-5.269h1.358l1.39 5.269h.07l1.213-5.269h1.396l-1.853 6.792h-1.473l-1.403-5.053h-.07l-1.39 5.053h-1.46ZM87.089 25.622V18.83h1.422v1.028h.063c.343-.71 1.016-1.161 2.025-1.161 1.505 0 2.355.933 2.355 2.526v4.4H91.54v-4.095c0-1.067-.47-1.625-1.441-1.625-.972 0-1.587.692-1.587 1.745v3.974h-1.422ZM95.02 25.622V16.24h1.416v9.382H95.02ZM101.453 25.755c-1.987 0-3.237-1.339-3.237-3.529v-.013c0-2.177 1.263-3.516 3.231-3.516 1.967 0 3.237 1.333 3.237 3.516v.013c0 2.19-1.257 3.53-3.231 3.53Zm0-1.174c1.111 0 1.784-.87 1.784-2.355v-.013c0-1.479-.68-2.342-1.79-2.342-1.105 0-1.784.863-1.784 2.342v.013c0 1.492.673 2.355 1.79 2.355ZM108.343 25.743c-1.32 0-2.253-.813-2.253-2.044v-.013c0-1.2.914-1.917 2.539-2.012l1.828-.108v-.552c0-.73-.476-1.156-1.352-1.156-.768 0-1.257.324-1.397.826l-.006.038h-1.346l.006-.057c.134-1.15 1.175-1.968 2.8-1.968 1.688 0 2.704.863 2.704 2.26v4.665h-1.409v-1.01h-.07c-.394.705-1.143 1.13-2.044 1.13Zm-.838-2.095c0 .603.502.971 1.231.971.984 0 1.721-.654 1.721-1.517v-.552l-1.638.101c-.876.058-1.314.4-1.314.984v.013ZM116.382 25.749c-1.72 0-2.825-1.365-2.825-3.523v-.006c0-2.165 1.105-3.517 2.819-3.517.945 0 1.732.476 2.113 1.238h.07v-3.7h1.416v9.381h-1.416v-1.11h-.07c-.393.767-1.142 1.237-2.107 1.237Zm.4-1.212c1.079 0 1.79-.895 1.79-2.31v-.007c0-1.416-.717-2.304-1.79-2.304-1.105 0-1.778.875-1.778 2.304v.006c0 1.435.673 2.31 1.778 2.31ZM128.467 25.755c-1.987 0-3.237-1.339-3.237-3.529v-.013c0-2.177 1.263-3.516 3.231-3.516 1.967 0 3.237 1.333 3.237 3.516v.013c0 2.19-1.257 3.53-3.231 3.53Zm0-1.174c1.111 0 1.784-.87 1.784-2.355v-.013c0-1.479-.679-2.342-1.79-2.342-1.105 0-1.784.863-1.784 2.342v.013c0 1.492.673 2.355 1.79 2.355ZM133.427 25.622V18.83h1.422v1.028h.064c.342-.71 1.015-1.161 2.025-1.161 1.504 0 2.355.933 2.355 2.526v4.4h-1.416v-4.095c0-1.067-.47-1.625-1.441-1.625-.971 0-1.587.692-1.587 1.745v3.974h-1.422ZM147.277 25.71c-1.434 0-2.076-.551-2.076-1.884V19.94h-1.015v-1.11h1.015v-1.734h1.448v1.733h1.364v1.11h-1.364v3.67c0 .704.285.958.914.958.184 0 .305-.012.45-.025v1.105a4.676 4.676 0 0 1-.736.063ZM149.832 25.622V16.24h1.415v3.663h.07c.336-.762 1.028-1.206 2.031-1.206 1.486 0 2.381.99 2.381 2.621v4.304h-1.416v-4.005c0-1.111-.508-1.714-1.485-1.714-.965 0-1.581.698-1.581 1.758v3.961h-1.415ZM160.619 25.755c-1.999 0-3.212-1.358-3.212-3.51v-.006c0-2.127 1.232-3.542 3.142-3.542 1.905 0 3.079 1.364 3.079 3.409v.482h-4.799c.026 1.276.724 2.018 1.822 2.018.844 0 1.371-.425 1.536-.85l.019-.045h1.352l-.013.058c-.222.983-1.206 1.986-2.926 1.986Zm-.063-5.91c-.902 0-1.587.61-1.708 1.746h3.383c-.107-1.174-.768-1.745-1.675-1.745ZM42.602 33.928a7.559 7.559 0 0 1 3.6-6.342 7.738 7.738 0 0 0-6.097-3.295c-2.565-.27-5.051 1.535-6.358 1.535-1.333 0-3.345-1.509-5.512-1.464a8.119 8.119 0 0 0-6.832 4.167c-2.954 5.114-.75 12.63 2.079 16.765 1.416 2.024 3.07 4.285 5.235 4.205 2.119-.088 2.91-1.35 5.468-1.35 2.533 0 3.276 1.35 5.484 1.3 2.274-.038 3.706-2.034 5.072-4.078a16.741 16.741 0 0 0 2.32-4.723 7.305 7.305 0 0 1-4.46-6.72ZM38.43 21.572a7.443 7.443 0 0 0 1.701-5.332 7.572 7.572 0 0 0-4.899 2.535 7.082 7.082 0 0 0-1.747 5.134 6.261 6.261 0 0 0 4.944-2.337ZM58.03 49.24l6.614-18.32h3.2l6.614 18.32h-3.085l-1.638-4.913h-6.982l-1.638 4.913H58.03Zm8.15-15.158-2.653 7.922h5.434l-2.64-7.922h-.14ZM76.718 53.76V35.656h2.843v2.235h.14c.787-1.562 2.273-2.489 4.202-2.489 3.44 0 5.65 2.73 5.65 7.033v.026c0 4.316-2.21 7.033-5.637 7.033-1.892 0-3.466-.952-4.227-2.475h-.127v6.74h-2.844Zm6.385-6.69c2.21 0 3.555-1.765 3.555-4.61v-.025c0-2.869-1.346-4.608-3.555-4.608-2.158 0-3.58 1.778-3.58 4.608v.026c0 2.818 1.435 4.608 3.58 4.608ZM92.231 53.76V35.656h2.844v2.235h.14c.787-1.562 2.272-2.489 4.202-2.489 3.44 0 5.649 2.73 5.649 7.033v.026c0 4.316-2.209 7.033-5.636 7.033-1.892 0-3.466-.952-4.228-2.475h-.127v6.74h-2.844Zm6.386-6.69c2.209 0 3.555-1.765 3.555-4.61v-.025c0-2.869-1.346-4.608-3.555-4.608-2.158 0-3.58 1.778-3.58 4.608v.026c0 2.818 1.435 4.608 3.58 4.608ZM120.504 49.621c-4.151 0-6.843-2.031-7.084-5.205l-.013-.165h2.857l.025.14c.203 1.65 1.904 2.704 4.329 2.704 2.361 0 3.948-1.13 3.948-2.806v-.013c0-1.422-.99-2.26-3.402-2.78l-1.993-.419c-3.656-.774-5.332-2.475-5.332-5.18v-.012c.013-3.174 2.78-5.345 6.665-5.345 3.885 0 6.462 2.145 6.665 5.129l.013.19h-2.831l-.026-.165c-.241-1.587-1.676-2.628-3.846-2.628-2.197.013-3.682 1.041-3.682 2.666v.013c0 1.358 1.003 2.21 3.313 2.704l1.994.42c3.808.812 5.42 2.36 5.42 5.14v.014c0 3.427-2.691 5.598-7.02 5.598ZM135.332 49.418c-2.869 0-4.151-1.105-4.151-3.77v-7.77h-2.032v-2.222h2.032V32.19h2.894v3.466h2.73v2.222h-2.73v7.338c0 1.409.571 1.917 1.828 1.917.368 0 .61-.026.902-.051v2.209a9.363 9.363 0 0 1-1.473.127ZM145.146 49.507c-3.974 0-6.475-2.679-6.475-7.059v-.025c0-4.355 2.526-7.033 6.462-7.033 3.935 0 6.474 2.666 6.474 7.033v.025c0 4.38-2.513 7.059-6.461 7.059Zm0-2.349c2.221 0 3.567-1.74 3.567-4.71v-.025c0-2.958-1.359-4.685-3.58-4.685-2.209 0-3.568 1.727-3.568 4.685v.025c0 2.984 1.346 4.71 3.581 4.71ZM154.286 49.24V35.656h2.844v2.184h.127c.47-1.524 1.663-2.438 3.351-2.438.419 0 .838.064 1.092.115v2.602a6.05 6.05 0 0 0-1.384-.152c-1.929 0-3.186 1.218-3.186 3.212v8.061h-2.844ZM169.165 49.507c-3.999 0-6.424-2.717-6.424-7.02v-.013c0-4.253 2.463-7.084 6.284-7.084 3.809 0 6.158 2.73 6.158 6.817v.965h-9.598c.051 2.552 1.447 4.037 3.644 4.037 1.688 0 2.742-.85 3.072-1.701l.038-.09h2.704l-.025.115c-.445 1.968-2.413 3.974-5.853 3.974Zm-.127-11.82c-1.803 0-3.174 1.22-3.415 3.492h6.767c-.216-2.349-1.536-3.492-3.352-3.492Z" fill="#fff"/></svg>