<svg width="218" height="70" fill="none" xmlns="http://www.w3.org/2000/svg"><rect width="217.936" height="70" rx="10" fill="#000" fill-opacity=".7"/><path d="M77.412 19.239c0 1.3-.386 2.336-1.157 3.107-.867.919-2.006 1.378-3.419 1.378-1.352 0-2.496-.468-3.432-1.404-.936-.936-1.404-2.089-1.404-3.458 0-1.37.468-2.522 1.404-3.458.936-.936 2.08-1.404 3.432-1.404.685 0 1.33.121 1.937.364a3.872 3.872 0 0 1 1.495 1.027l-.858.858a2.82 2.82 0 0 0-1.118-.806 3.56 3.56 0 0 0-1.456-.299c-1.014 0-1.872.351-2.574 1.053-.693.71-1.04 1.599-1.04 2.665s.347 1.954 1.04 2.665c.702.702 1.56 1.053 2.574 1.053.927 0 1.699-.26 2.314-.78s.97-1.235 1.066-2.145h-3.38v-1.118h4.511c.043.243.065.477.065.702ZM84.56 14.208v1.144H80.32v2.951h3.822v1.118h-3.822v2.951h4.238v1.144h-5.434v-9.308h5.434ZM89.603 15.352v8.164h-1.196v-8.164h-2.6v-1.144h6.396v1.144h-2.6ZM98.024 23.516h-1.196v-9.308h1.196v9.308ZM103.332 15.352v8.164h-1.196v-8.164h-2.6v-1.144h6.396v1.144h-2.6ZM119.416 18.862c0 1.378-.459 2.53-1.378 3.458-.927.936-2.062 1.404-3.406 1.404-1.352 0-2.487-.468-3.406-1.404-.918-.927-1.378-2.08-1.378-3.458 0-1.378.46-2.53 1.378-3.458.919-.936 2.054-1.404 3.406-1.404 1.352 0 2.488.472 3.406 1.417.919.927 1.378 2.076 1.378 3.445Zm-8.346 0c0 1.075.338 1.963 1.014 2.665.685.702 1.534 1.053 2.548 1.053s1.859-.351 2.535-1.053c.685-.693 1.027-1.582 1.027-2.665s-.342-1.972-1.027-2.665c-.676-.702-1.521-1.053-2.535-1.053-1.014 0-1.863.351-2.548 1.053-.676.702-1.014 1.59-1.014 2.665ZM122.284 23.516h-1.196v-9.308h1.456l4.524 7.241h.052l-.052-1.794v-5.447h1.196v9.308h-1.248l-4.732-7.592h-.052l.052 1.794v5.798ZM194.812 37.546l-3.187 8.117h-.096l-3.325-8.117h-3.007l4.983 11.347-2.847 6.31h2.921l7.682-17.657h-3.124Zm-22.523-6.736h-2.784v18.72h2.784V30.81Zm-10.476 0h-6.693v18.72h2.805v-7.086h3.899a5.937 5.937 0 0 0 6.141-5.812 5.962 5.962 0 0 0-1.859-4.197 5.943 5.943 0 0 0-4.293-1.625Zm.074 9.02h-3.962v-6.374h3.973a3.189 3.189 0 0 1 2.254 5.44 3.189 3.189 0 0 1-2.254.934h-.011Zm17.265-2.688a5.247 5.247 0 0 0-4.983 2.869l2.486 1.062a2.64 2.64 0 0 1 2.55-1.36 2.676 2.676 0 0 1 2.932 2.412v.191a6.083 6.083 0 0 0-2.9-.733c-2.667 0-5.387 1.466-5.387 4.25 0 2.507 2.178 4.122 4.643 4.122a3.89 3.89 0 0 0 3.549-1.827h.106v1.445h2.72v-7.204c0-3.325-2.486-5.174-5.695-5.174l-.021-.053Zm-.329 10.263c-.914 0-2.189-.467-2.189-1.593 0-1.445 1.583-1.998 2.964-1.998a4.96 4.96 0 0 1 2.55.627 3.392 3.392 0 0 1-3.325 2.964Zm-100.74 2.529A10.05 10.05 0 0 1 68 40.043a10.05 10.05 0 0 1 10.082-9.892 9.465 9.465 0 0 1 6.81 2.73l-1.922 1.902a6.916 6.916 0 0 0-4.888-1.976 7.193 7.193 0 0 0 0 14.386 6.64 6.64 0 0 0 5.015-1.987 5.588 5.588 0 0 0 1.477-3.4h-6.492v-2.624h9.138c.1.557.145 1.123.138 1.69a8.893 8.893 0 0 1-2.348 6.374 9.105 9.105 0 0 1-6.928 2.688Zm23.405-6.375a6.314 6.314 0 0 1-6.306 6.57 6.31 6.31 0 0 1-6.305-6.57 6.31 6.31 0 0 1 12.207-2.493c.302.795.439 1.643.404 2.493Zm-2.762 0a3.56 3.56 0 1 0-7.087 0 3.56 3.56 0 1 0 7.087 0Zm16.892 0a6.298 6.298 0 0 1-6.3 6.3 6.301 6.301 0 1 1 6.3-6.3Zm-2.751 0a3.553 3.553 0 0 0-.911-2.731 3.556 3.556 0 0 0-5.266 0 3.57 3.57 0 0 0-.91 2.731 3.553 3.553 0 0 0 .91 2.732 3.57 3.57 0 0 0 2.633 1.164 3.563 3.563 0 0 0 3.377-2.434c.157-.47.214-.968.167-1.462Zm16.542-5.981V49.02c0 4.696-2.794 6.63-6.088 6.63a6.11 6.11 0 0 1-5.673-3.719l2.411-1.062a3.544 3.544 0 0 0 3.188 2.263c2.125 0 3.421-1.307 3.421-3.74v-.914h-.107a4.375 4.375 0 0 1-3.314 1.456 6.376 6.376 0 0 1-4.508-10.882 6.376 6.376 0 0 1 4.508-1.867 4.44 4.44 0 0 1 3.357 1.423h.106v-1.062h2.699v.032Zm-2.476 6.013a3.611 3.611 0 0 0-.882-2.666 3.605 3.605 0 0 0-2.528-1.222 3.7 3.7 0 0 0-3.57 3.888 3.662 3.662 0 0 0 2.156 3.513c.445.2.926.31 1.414.322a3.553 3.553 0 0 0 2.522-1.19 3.546 3.546 0 0 0 .888-2.644Zm7.395-12.76v18.71h-2.805V30.83h2.805Zm11.049 14.832 2.189 1.445a6.379 6.379 0 0 1-5.312 2.826 6.173 6.173 0 0 1-6.258-6.375 5.867 5.867 0 0 1 8.8-5.57 5.861 5.861 0 0 1 2.621 3.254l.287.733-8.5 3.517a3.263 3.263 0 0 0 3.103 1.933 3.655 3.655 0 0 0 3.07-1.763Zm-6.704-2.295 5.716-2.359a2.485 2.485 0 0 0-2.38-1.349 3.495 3.495 0 0 0-3.336 3.708Z" fill="#fff"/><path d="M36.925 33.45 20.15 51.025a4.551 4.551 0 0 0 6.662 2.7l18.875-10.75-8.762-9.525Z" fill="#EA4335"/><path d="m53.888 30.462-8.163-4.674-9.187 8.062 9.225 9.1 8.1-4.625a4.437 4.437 0 0 0 0-7.863h.025Z" fill="#FBBC04"/><path d="M20.15 17.675a4.328 4.328 0 0 0-.15 1.15v31.05c.001.388.052.775.15 1.15L37.5 33.9 20.15 17.675Z" fill="#4285F4"/><path d="m37.05 34.35 8.675-8.563-18.85-10.8a4.65 4.65 0 0 0-2.338-.637 4.55 4.55 0 0 0-4.387 3.313l16.9 16.687Z" fill="#34A853"/></svg>