<svg viewBox="0 0 140 40" fill="none" xmlns="http://www.w3.org/2000/svg">
<path fill-rule="evenodd" clip-rule="evenodd" d="M3.63636 7.27273C5.64467 7.27273 7.27273 8.90078 7.27273 10.9091V29.0909C7.27273 31.0992 5.64467 32.7273 3.63636 32.7273C1.62806 32.7273 0 31.0992 0 29.0909V10.9091C0 8.90078 1.62806 7.27273 3.63636 7.27273Z" fill="currentColor"/>
<path fill-rule="evenodd" clip-rule="evenodd" d="M16.3636 0C18.3719 0 20 1.62805 20 3.63636V36.3636C20 38.3719 18.3719 40 16.3636 40C14.3553 40 12.7273 38.3719 12.7273 36.3636V3.63636C12.7273 1.62806 14.3553 0 16.3636 0Z" fill="currentColor"/>
<path fill-rule="evenodd" clip-rule="evenodd" d="M38.1818 14.5455C35.1694 14.5455 32.7273 16.9875 32.7273 20C32.7273 23.0125 35.1694 25.4545 38.1818 25.4545C41.1943 25.4545 43.6364 23.0125 43.6364 20C43.6364 16.9875 41.1943 14.5455 38.1818 14.5455ZM25.4545 20C25.4545 12.9709 31.1527 7.27273 38.1818 7.27273C45.2109 7.27273 50.9091 12.9709 50.9091 20C50.9091 27.0291 45.2109 32.7273 38.1818 32.7273C31.1527 32.7273 25.4545 27.0291 25.4545 20Z" fill="currentColor"/>
<path fill-rule="evenodd" clip-rule="evenodd" d="M67.2727 14.5455C64.2603 14.5455 61.8182 16.9875 61.8182 20C61.8182 23.0125 64.2603 25.4545 67.2727 25.4545C70.2852 25.4545 72.7273 23.0125 72.7273 20C72.7273 16.9875 70.2852 14.5455 67.2727 14.5455ZM54.5455 20C54.5455 12.9709 60.2436 7.27273 67.2727 7.27273C74.3018 7.27273 80 12.9709 80 20C80 27.0291 74.3018 32.7273 67.2727 32.7273C60.2436 32.7273 54.5455 27.0291 54.5455 20Z" fill="currentColor"/>
<path fill-rule="evenodd" clip-rule="evenodd" d="M132.727 7.27273C134.736 7.27273 136.364 8.90078 136.364 10.9091V29.0909C136.364 31.0992 134.736 32.7273 132.727 32.7273C130.719 32.7273 129.091 31.0992 129.091 29.0909V10.9091C129.091 8.90078 130.719 7.27273 132.727 7.27273Z" fill="currentColor"/>
<path fill-rule="evenodd" clip-rule="evenodd" d="M95.4545 14.5455C92.9442 14.5455 90.9091 16.5805 90.9091 19.0909V29.0909C90.9091 31.0992 89.281 32.7273 87.2727 32.7273C85.2644 32.7273 83.6364 31.0992 83.6364 29.0909V19.0909C83.6364 12.5639 88.9275 7.27273 95.4545 7.27273C98.63 7.27273 101.513 8.5251 103.636 10.5629C105.76 8.5251 108.643 7.27273 111.818 7.27273C118.345 7.27273 123.636 12.5639 123.636 19.0909V29.0909C123.636 31.0992 122.008 32.7273 120 32.7273C117.992 32.7273 116.364 31.0992 116.364 29.0909V19.0909C116.364 16.5805 114.329 14.5455 111.818 14.5455C109.308 14.5455 107.273 16.5805 107.273 19.0909V29.0909C107.273 31.0992 105.645 32.7273 103.636 32.7273C101.628 32.7273 100 31.0992 100 29.0909V19.0909C100 16.5805 97.9649 14.5455 95.4545 14.5455Z" fill="currentColor"/>
</svg>
